<svg xmlns="http://www.w3.org/2000/svg" viewBox="0 0 673.87 934.06"><defs><style>.cls-1{fill:#ff5a3c;}</style></defs><g id="Layer_2" data-name="Layer 2"><g id="Layer_1-2" data-name="Layer 1"><path class="cls-1" d="M283.84,443.73H302a6.11,6.11,0,0,1,6.11,6.11v4.68a13,13,0,0,1-13,13h0a13.95,13.95,0,0,1-13.95-13.95v-7.13a2.74,2.74,0,0,1,2.74-2.74Z"/><path class="cls-1" d="M433.39,403.93a120,120,0,0,1,12.16-11.7c2.08-1.76,4.22-3.42,6.43-5,1.48-1.1,3-2.14,4.55-3.15l1-3.65,2.2-8.25L486,272.91l2.68-10.1q-5,1.77-9.82,3.78a219.8,219.8,0,0,0-56.15,33.76c-1,.79-1.91,1.59-2.85,2.41v43.65q-2.26-1.46-4.59-2.83c-.19-.12-.4-.23-.59-.34-3.07-1.81-6.22-3.52-9.42-5.11l-.74-.37c-2.89-1.41-5.84-2.75-8.82-4a5,5,0,0,0-.49-.2c-.74-.31-1.49-.62-2.25-.92-.36-.15-.74-.28-1.12-.42l-.45-.18c-.72-.28-1.45-.54-2.18-.8l-.29-.11c-.49-.17-1-.36-1.46-.51-1.36-.48-2.72-.93-4.1-1.37l-.13-.05-.1,0c-1.39-.45-2.78-.87-4.18-1.26l-1.19-.34-.29-.08c-1.72-.48-3.46-.92-5.2-1.33a3,3,0,0,1-.32-.09c-1.68-.38-3.37-.75-5.07-1.08l-1-.21c-1.65-.31-3.3-.61-5-.87l-1-.15c-1.6-.24-3.19-.46-4.81-.66l-.52-.07c-1.63-.18-3.26-.34-4.9-.47l-.26,0-1.13-.08c-1.46-.11-2.93-.2-4.4-.26l-.72,0c-.34,0-.68,0-1,0-1.8-.08-3.61-.11-5.42-.11h0c-1.82,0-3.62,0-5.42.11-.34,0-.69,0-1,0l-.72,0c-1.47.06-2.93.15-4.39.26l-1.13.08-.26,0c-1.64.13-3.28.29-4.91.47l-.51.07c-1.62.2-3.22.42-4.81.66l-1,.15c-1.66.26-3.32.56-5,.87l-1,.21c-1.69.33-3.38.7-5.06,1.08a3,3,0,0,1-.32.09c-1.74.41-3.48.85-5.2,1.33l-.29.08-1.2.34c-1.4.39-2.79.81-4.18,1.26l-.09,0-.14.05c-1.37.44-2.74.89-4.09,1.37-.5.15-1,.34-1.46.51l-.29.11c-.73.26-1.46.52-2.18.8l-.45.18c-.38.14-.76.27-1.12.42l-2.26.92a4,4,0,0,0-.48.2c-3,1.24-5.94,2.58-8.82,4l-.75.37q-4.8,2.39-9.41,5.11l-.6.34c-1.54.92-3.08,1.86-4.59,2.83V302.76c-.94-.82-1.89-1.62-2.85-2.41a219.8,219.8,0,0,0-56.15-33.76c-3.22-1.34-6.5-2.6-9.81-3.78l2.68,10.1,26.33,99.25,2.19,8.25,1,3.65c1.55,1,3.07,2.05,4.56,3.15,2.2,1.6,4.35,3.26,6.43,5A119.88,119.88,0,0,1,240,403.93c1.72,1.92,3.39,3.88,5,5.9v50.85l-2.51,4.84-27.3,52.67-4.47,8.64,5.4,8.1.71,1.06,5.09,7.64,30.54,45.76-1.37,5.44-2.23,8.81,7.47,5.14,6.9,4.72,8,5.5,8.6,5.9.59.4-.29,1.94-.13.83-1,6.81-.32,2.09-1,6.81,8,4.14,9.78,5.07,23.51,12.19,9.86,5.1,7.94,4.12h0l7.94-4.12,9.85-5.1L378,653l9.78-5.07,8-4.14-1-6.81-.32-2.09-1.05-6.81-.12-.83L393,625.3l.58-.4,8.6-5.9,8-5.5,6.89-4.72,7.48-5.14-2.23-8.81-1.38-5.44,30.55-45.76,5.09-7.64.71-1.06,5.39-8.1-4.47-8.64-27.29-52.67-2.51-4.84V409.83C430,407.81,431.67,405.85,433.39,403.93Zm-5-97.21a211.61,211.61,0,0,1,47.68-29.65l-25.32,95.44-1.67,6.28c-.85.59-1.69,1.2-2.53,1.83a126.73,126.73,0,0,0-18.16,16.16Zm-174.92,50,.55-.38c.8-.56,1.63-1.12,2.46-1.67l.38-.24c.87-.57,1.75-1.15,2.64-1.69.23-.16.49-.31.73-.45l2.32-1.42,1-.58c.7-.4,1.39-.81,2.09-1.19l1.18-.65c.66-.37,1.3-.72,2-1.06.41-.23.84-.44,1.25-.66l2-1,1.2-.59c.71-.34,1.43-.69,2.15-1l1-.47,2.05-.91c.83-.37,1.67-.71,2.51-1.06l2.11-.86c1.47-.59,3-1.16,4.47-1.7a2.55,2.55,0,0,1,.39-.13c1.77-.65,3.59-1.24,5.4-1.82l1.92-.58,1-.31h0A145.73,145.73,0,0,1,324.84,331c1.54-.12,3.1-.22,4.67-.29q2.91-.15,5.84-.18H338q2.93,0,5.83.18c1.57.07,3.13.17,4.68.29a145.5,145.5,0,0,1,28.58,5.22h0l1,.31,1.91.58c1.82.58,3.63,1.17,5.41,1.82a3,3,0,0,1,.39.13c1.5.54,3,1.11,4.47,1.7l2.11.86c.84.35,1.68.69,2.51,1.06l2,.91,1,.47c.72.32,1.44.67,2.14,1l1.21.59c.66.33,1.32.66,2,1,.42.22.84.43,1.26.66.66.34,1.3.69,2,1.06l1.18.65c.69.38,1.39.79,2.08,1.19l1,.58,2.32,1.42c.24.14.49.29.73.45.88.54,1.76,1.12,2.64,1.69.13.08.25.17.38.24.82.55,1.65,1.11,2.46,1.67l.54.38v87.84l-7.45-11.18-7.11-10.67-1.41-2.13-4.83-7.24-3.81-5.72-13,5.72-10.31,4.52-.3-.35-2,1.35-10.74,4.71L352.14,427l-6.39,3.26-1.89,1-.24.13-.43.22-.13.06h0l-5,2.57v0l-1.34.69-1.34-.69-4.89-2.49-.14-.06-.14-.06-.42-.22-.25-.13-1.88-1-6.4-3.26-6.76-3.45-10.74-4.71-2-1.35-.31.35-10.3-4.52-13-5.72-3.82,5.72-4.82,7.24-1.41,2.13L261,433.35l-7.46,11.18Zm83.2,112.84h0l-1.66.84-5.25,2.68-.26.13-2.21,1.14h0l-.2.09-5,2.59-2.68,1.36-.94.48-7.72,3.94-.79.36-8.2,3.58-16.34,7.16-3.46,1.52-.61.27-.09,0-2.51-3.77-.76-1.16-9.76-14.64-5.09-7.63-3.84-5.77-.56-.84-2.68-4,4.13-8,.8-1.19,8.52-12.78,1.44-2.16,4.75-7.14,5.56-8.35,8.65,3.79,5.77,2.53,8.16,3.57,6.91,3,10.52,5.37.56.28,4.63,2.36,3.09,1.59,7.18,3.65h0l7.17-3.65L347,439.2l4.63-2.36.56-.28,10.53-5.37,6.9-3,8.16-3.57,5.78-2.53,8.64-3.79,5.57,8.35,4.75,7.14,1.44,2.16,8.52,12.78.79,1.19,4.13,8-2.68,4-.56.84-3.83,5.77-5.1,7.63-9.75,14.64-.77,1.16-2.51,3.77-.08,0-.61-.27L388,493.88l-16.35-7.16-8.19-3.58-.79-.36-7.73-3.94-.93-.48L351.33,477l-5.05-2.59-.19-.09h0l-2.22-1.14-.25-.13-5.25-2.68-1.66-.84ZM226.81,380.62c-.84-.63-1.68-1.24-2.54-1.83l-1.67-6.28-25.32-95.44A211.45,211.45,0,0,1,245,306.72v90.06A126.73,126.73,0,0,0,226.81,380.62Zm29.32,194.09-.88,3.55-28.16-42.21L222,528.42l-1.43-2.13L245,479.2l5.33-10.28.68-1.33.56-1.08,2,2.94,4.41,6.62.8,1.19.56.85,3.74,5.6,8.78,13.18,2.93,4.39L272,511.92l-1.34,5.29Zm25.69,41.22-.57-.39-1.33-.92-8-5.49L258.55,600l.25-1,2.06-8.14.76-3,1.63-6.44,13-51.41,2.85-11.23.37-1.45.29-1.18,2.4-9.42.59-2.32,8.4-3.69,8-3.52.71-.3-.41,2.64-.42,2.61h0l-1.85,12.15-.81,5.4-8.88,58.64-1.45,9.62Zm70,41-15.12,7.83L321.56,657,287,639l1-6.43.06-.39.23-1.55.08-.47,1.06-7,4.43-29.37,1.47-9.63,7.95-52.43,1.74-11.45.22-1.48.17-1.21L306.8,508l1.33-8.9.56-3.7.4-2.65,5.38-2.36,4.9-2.5,2.68-1.36,5-2.58,2.42-1.23.26-.14,5.58-2.85,1.33-.67h0v0l1.33.67,5.58,2.85.25.14,2.42,1.23,5.05,2.58,2.68,1.36,4.89,2.5,5.39,2.36.4,2.65.56,3.7,1.33,8.9,1.47,9.61.17,1.21.22,1.48,1.74,11.45,7.94,52.43,1.48,9.63L384,623.22l1.06,7,.07.47.23,1.55.06.39,1,6.43Zm49.66-47.83-8,5.49-1.33.92-.57.39-4.27-28-1.45-9.62L377,519.65l-.8-5.4-1.85-12.15h0l-.41-2.61-.41-2.64.7.3,8,3.52,8.4,3.69.58,2.32,2.4,9.42.3,1.18.36,1.45L397.12,530l13,51.41,1.63,6.44.76,3,2.05,8.14.26,1Zm51.34-82.84-1.43,2.13-5.09,7.63-28.16,42.21-.89-3.55-14.55-57.5-1.34-5.29-2.68-10.64,2.92-4.39,8.78-13.18,3.74-5.6.56-.85.81-1.19,4.4-6.62,1.95-2.94.56,1.08.69,1.33,5.33,10.28Z"/><circle class="cls-1" cx="378.18" cy="455.64" r="8.62"/><path class="cls-1" d="M351.2,502.51v6.25c0,5-6.52,9.15-14.5,9.15s-14.51-4.11-14.51-9.15v-6.25Z"/><g id="knives"><g id="knife-bottom"><path class="cls-1" d="M336.7,771.68l-37.88-31c-2.25-1.93-4.43-3.95-6.66-5.9A766.91,766.91,0,0,1,187,622.44q-2.7-3.54-5.36-7.12-3.72,2.45-7.51,4.84-28.33,18-58.33,33.53-4,2.09-8,4.11-7.7,3.87-15.48,7.56-4.09,1.93-8.22,3.84,2.59,3.62,5.27,7.21A779.87,779.87,0,0,0,227,819.37q3.5,2.82,7,5.55,2.46-3.72,5-7.43,4.81-7.07,9.79-14c1.72-2.43,3.46-4.83,5.23-7.23q8.8-12,18.08-23.7l31.77,26,6.72,5.51,6.72-5.5-6.72-5.52L277.42,765.9l-.17-.14L292.65,747l.16-.19.4.33L330,777.18l6.73,5.52,6.72-5.52ZM232,812A767,767,0,0,1,97.6,672.54q6.7-3.16,13.34-6.5c1.33,1.79,2.67,3.59,4,5.35A731.19,731.19,0,0,0,235.54,796c1.62,1.32,3.23,2.62,4.86,3.91Q236.13,805.88,232,812Zm50.68-66.28q-18.72,21.87-35.63,45l-1.79,2.44q-2.43-1.92-4.82-3.9A718.4,718.4,0,0,1,122.53,667.54q-2-2.64-4-5.33l2.69-1.39q29.92-15.5,58.32-33.53a771.09,771.09,0,0,0,68.64,78.51q18.48,18.48,38,35.56l.09.09C285.08,742.85,283.87,744.26,282.69,745.67Z"/><path class="cls-1" d="M410.18,831.84l-40.66-33.28-6.72-5.51-6.72,5.52,6.72,5.5,42,34.37A9,9,0,0,1,406,851l-4.22,5.17a9,9,0,0,1-12.59,1.24l-45.8-37.5-6.72-5.5-6.73,5.5,6.73,5.52L383.82,864a17.51,17.51,0,0,0,24.58-2.45l4.23-5.15A17.5,17.5,0,0,0,410.18,831.84Zm-124-90.48-3.52,4.31c1.18-1.41,2.39-2.82,3.61-4.22Z"/><circle class="cls-1" cx="392.38" cy="844.15" r="5.98"/><path class="cls-1" d="M174.17,671.11a13.67,13.67,0,1,1,13.67-13.66A13.68,13.68,0,0,1,174.17,671.11Zm0-21.24a7.58,7.58,0,1,0,7.58,7.58A7.59,7.59,0,0,0,174.17,649.87Z"/></g><g id="knife-top"><path class="cls-1" d="M387.18,741.36l-.09.09c1.21,1.4,2.43,2.81,3.61,4.22Z"/><path class="cls-1" d="M581.08,665.36q-7.8-3.69-15.48-7.56-4-2-8.05-4.11-30-15.48-58.33-33.53-3.78-2.4-7.51-4.84-2.65,3.57-5.36,7.12A767.31,767.31,0,0,1,381.45,735h0l-6.88,5.64-37.87,31-6.73,5.5-19.38,15.87-6.72,5.51-40.66,33.28a17.5,17.5,0,0,0-2.45,24.59l4.23,5.15A17.47,17.47,0,0,0,289.57,864l47.13-38.58,6.72-5.52,19.38-15.86,6.72-5.51,31.77-26q9.3,11.69,18.08,23.7c1.77,2.4,3.51,4.8,5.23,7.23q5,6.93,9.79,14,2.52,3.72,5,7.43,3.53-2.73,7-5.55a775.76,775.76,0,0,0,63.1-56.6A774.57,774.57,0,0,0,584,676.41q2.69-3.6,5.27-7.21Q585.17,667.29,581.08,665.36ZM396,765.9,362.8,793.05l-6.72,5.52L336.7,814.43l-6.73,5.5-45.8,37.5a9,9,0,0,1-12.59-1.24L267.36,851a9,9,0,0,1,1.26-12.58l42-34.37,6.72-5.5L336.7,782.7l6.72-5.52,36.76-30.09.4-.33.16.19,15.4,18.81Zm32.15,27.2c-.59-.82-1.18-1.63-1.79-2.45q-16.9-23.08-35.63-45c-1.18-1.41-2.4-2.82-3.61-4.22l.09-.09q19.53-17,38-35.56a771.09,771.09,0,0,0,68.64-78.51q28.38,18,58.32,33.53l2.7,1.4q-2,2.68-4,5.32A718.4,718.4,0,0,1,433,789.19C431.36,790.51,429.74,791.81,428.12,793.1ZM441.38,812q-4.11-6.08-8.39-12.07,2.43-1.93,4.87-3.91a728,728,0,0,0,55.66-50.24,726.86,726.86,0,0,0,64.91-74.34c1.35-1.76,2.7-3.56,4-5.35q6.63,3.33,13.33,6.5A767,767,0,0,1,441.38,812Z"/><circle class="cls-1" cx="281.02" cy="844.16" r="5.98" transform="translate(-514.6 445.96) rotate(-45)"/><path class="cls-1" d="M499.22,643.78a13.67,13.67,0,1,0,13.67,13.67A13.68,13.68,0,0,0,499.22,643.78Zm0,21.24a7.58,7.58,0,1,1,7.58-7.57A7.57,7.57,0,0,1,499.22,665Z"/></g></g><path class="cls-1" d="M64.85,470.83v23.48h53.66v12.61H64.85V530.4H58.41V470.83Z"/><path class="cls-1" d="M58.41,398.65h60.1v12.61H92.32v35.66h26.19v12.61H58.41V446.92H85.88V411.26H58.41Z"/><path class="cls-1" d="M64.85,369.51H84.6V337.77H91v31.74h21V329.07h6.44v53.05H58.41V329.07h6.44Z"/><path class="cls-1" d="M80.49,231.81a46.16,46.16,0,0,1,7.66-12.16,30.31,30.31,0,0,1,10-7.54,27.24,27.24,0,0,1,12-2.44,34.5,34.5,0,0,1,13.5,3.23,34.76,34.76,0,0,1,11.46,7.84,27.47,27.47,0,0,1,6.22,10.52,30.36,30.36,0,0,1,1.13,12.49,50.28,50.28,0,0,1-11.56,26,30.44,30.44,0,0,1-10,7.58,27,27,0,0,1-12,2.4,35.33,35.33,0,0,1-13.49-3.28,35.25,35.25,0,0,1-11.47-7.8,26.91,26.91,0,0,1-6.24-10.48,30.49,30.49,0,0,1-1.11-12.53A46.93,46.93,0,0,1,80.49,231.81Zm5.5,2.44a22.26,22.26,0,0,0-2,8.22,17.89,17.89,0,0,0,1.58,8.07A23.16,23.16,0,0,0,91.1,258a34.69,34.69,0,0,0,9.78,6.2,34.77,34.77,0,0,0,11.17,3.1,23.23,23.23,0,0,0,9.19-.91,18,18,0,0,0,7-4.25A23.1,23.1,0,0,0,135,246.93a18,18,0,0,0-1.58-8.08,23.27,23.27,0,0,0-5.49-7.43,35,35,0,0,0-9.79-6.2,34.72,34.72,0,0,0-11.16-3.1,23.23,23.23,0,0,0-9.19.92,18,18,0,0,0-7,4.24A22.1,22.1,0,0,0,86,234.25Z"/><path class="cls-1" d="M133.84,154.66a49.39,49.39,0,0,1,11.21-9,31.22,31.22,0,0,1,11.69-4,25.7,25.7,0,0,1,11.7,1.36,34.85,34.85,0,0,1,18.83,18,25.64,25.64,0,0,1,1.91,11.62,31.05,31.05,0,0,1-3.43,11.87,49,49,0,0,1-8.42,11.62l-19.8,20.78L114,175.43Zm-6.44,16.09,34.17,32.59,11.1-11.65a25.42,25.42,0,0,0,4.77-6.93,17.32,17.32,0,0,0,1.61-7.78,20.63,20.63,0,0,0-2.16-8.37,30.44,30.44,0,0,0-6.6-8.63,30.12,30.12,0,0,0-8.94-6.18,20.47,20.47,0,0,0-8.46-1.76,17.46,17.46,0,0,0-7.7,2,25.52,25.52,0,0,0-6.69,5.1Z"/><path class="cls-1" d="M222.05,159.49l-10.54,6.93-33-50.22L189,109.27Z"/><path class="cls-1" d="M271,73.1l20.45,56.51-15.54,5.63-47.32-34.92-.81.29,16.65,46-11.86,4.29L212.15,94.41l15.54-5.62L275,123.71l.82-.3-16.66-46Z"/><path class="cls-1" d="M310.6,75.7a14.75,14.75,0,0,1-.36,5.88A12.08,12.08,0,0,1,308,85.9a10.16,10.16,0,0,1-3.48,2.74,13,13,0,0,1-4.11,1.22l-.35-3a6.75,6.75,0,0,0,4-2,6,6,0,0,0,1.81-4.32,1.91,1.91,0,0,1-.58.33,6.5,6.5,0,0,1-1.53.35,5.62,5.62,0,0,1-4.54-1.41,6.63,6.63,0,0,1-1-9,6.12,6.12,0,0,1,4.48-2.47,6,6,0,0,1,5.38,1.83A9.27,9.27,0,0,1,310.6,75.7Z"/><path class="cls-1" d="M386.35,114.75a15.57,15.57,0,0,1-2.13,6.76,14.28,14.28,0,0,1-5.52,5.14,28.64,28.64,0,0,1-9.41,3,65.41,65.41,0,0,1-22.77-1.18,54.5,54.5,0,0,1-8.16-2.65,41.62,41.62,0,0,1-7-3.72,29.28,29.28,0,0,1-5.43-4.54l4.75-4.78a34.2,34.2,0,0,0,11,7.32A45.79,45.79,0,0,0,356,123.45q8.76.72,12.6-1.38a7.52,7.52,0,0,0,4.18-6.29,6.77,6.77,0,0,0-2.41-5.71q-2.68-2.46-9.35-5.16l-16.05-6.48q-7.94-3.24-11.77-7.56a13.43,13.43,0,0,1-3.33-10.48,13.12,13.12,0,0,1,2-6A14.7,14.7,0,0,1,337,69.56a25.85,25.85,0,0,1,8.49-2.92,47.6,47.6,0,0,1,12.11-.34,53.19,53.19,0,0,1,16.29,4A43.17,43.17,0,0,1,380.83,74a29.28,29.28,0,0,1,5.43,4.54l-4.75,4.78a35.29,35.29,0,0,0-10.57-7.29,42.1,42.1,0,0,0-13.87-3.33q-6.49-.54-9.93,1.42a6.55,6.55,0,0,0-3.7,5.21,7.51,7.51,0,0,0,.35,3.18,7,7,0,0,0,1.83,2.64,15.52,15.52,0,0,0,3.6,2.45q2.25,1.18,5.63,2.58l16,6.47a33.84,33.84,0,0,1,11.87,7.52A13.15,13.15,0,0,1,386.35,114.75Z"/><path class="cls-1" d="M474,137.63l4.06,38-12.3-7.4-3.44-33.11-13-7.84-13.71,22.81-10.81-6.49,30.95-51.52,10.81,6.5-13.93,23.18,12.3,7.39L496,116.27l11.93,7.17Z"/><path class="cls-1" d="M491.91,191.72l-9.13-8.7,41.44-43.53,9.13,8.7Z"/><path class="cls-1" d="M577.28,214.88l-13.4-19.28-44.07,30.62-7.19-10.35,44.06-30.63L543.28,166l5.28-3.67,34,48.91Z"/><path class="cls-1" d="M549.63,278.32a32.3,32.3,0,0,0,5.63,10.06,31.75,31.75,0,0,0,9.61,7.67l-3.45,5.79a36.53,36.53,0,0,1-10.74-9,42,42,0,0,1-7.42-13.26A49.44,49.44,0,0,1,540.38,265a31.09,31.09,0,0,1,2.08-12.59,27,27,0,0,1,7.06-10,34.62,34.62,0,0,1,12.07-6.85,35.05,35.05,0,0,1,13.71-2.13A27.09,27.09,0,0,1,587,236.77a30.28,30.28,0,0,1,9.36,8.4A46.39,46.39,0,0,1,603,258a42.1,42.1,0,0,1,2.39,15,36.85,36.85,0,0,1-2.88,13.71l-6.29-2.42a32,32,0,0,0,2.8-12,32.49,32.49,0,0,0-1.82-11.38,25.35,25.35,0,0,0-4.29-7.81,18.53,18.53,0,0,0-6.65-5.15,21.72,21.72,0,0,0-9-1.82,38.93,38.93,0,0,0-21.49,7.45,20.68,20.68,0,0,0-5.86,7.1,19.33,19.33,0,0,0-1.94,8.41A27.36,27.36,0,0,0,549.63,278.32Z"/><path class="cls-1" d="M615.46,372.38l-60.08,1-.21-12.61,26.18-.42-.58-35.66-26.18.43-.21-12.61,60.09-1,.21,12.61-27.47.45.58,35.65,27.47-.45Z"/><path class="cls-1" d="M608.54,402.31H588.79v31.74h-6.44V402.31h-21v40.44h-6.44V389.7H615v53.05h-6.44Z"/><path class="cls-1" d="M615,518.41h-60.1V501.89l48.94-32.61v-.87H554.88V455.8H615v16.52L566,504.93v.87H615Z"/><path class="cls-1" d="M339.49,258.3,314.21,233l25.28-25.29L364.78,233ZM324.11,233l15.38,15.39L354.88,233l-15.39-15.39Z"/><polygon class="cls-1" points="342.99 281.35 335.99 281.35 335.99 178.85 365.5 208.35 360.55 213.3 342.99 195.75 342.99 281.35"/><path class="cls-1" d="M343.36,934.06H330.51A326.4,326.4,0,0,1,202.17,908,333.67,333.67,0,0,1,26.08,731.89,326.58,326.58,0,0,1,0,603.54v-273A326.57,326.57,0,0,1,26.08,202.17,333.64,333.64,0,0,1,202.17,26.08,326.57,326.57,0,0,1,330.51,0h12.85A326.58,326.58,0,0,1,471.71,26.08,333.67,333.67,0,0,1,647.79,202.17a326.39,326.39,0,0,1,26.08,128.34v273a326.4,326.4,0,0,1-26.08,128.35A333.69,333.69,0,0,1,471.71,908,326.41,326.41,0,0,1,343.36,934.06ZM330.51,9C153.23,9,9,153.23,9,330.51v273C9,780.83,153.23,925.06,330.51,925.06h12.85c177.28,0,321.51-144.23,321.51-321.52v-273C664.87,153.23,520.64,9,343.36,9Z"/></g></g></svg>